<?xml version="1.0" standalone="no"?>
<!DOCTYPE svg PUBLIC "-//W3C//DTD SVG 20010904//EN"
 "http://www.w3.org/TR/2001/REC-SVG-20010904/DTD/svg10.dtd">
<svg version="1.0" xmlns="http://www.w3.org/2000/svg"
 width="693.000000pt" height="693.000000pt" viewBox="0 0 693.000000 693.000000"
 preserveAspectRatio="xMidYMid meet">
<metadata>
Created by potrace 1.11, written by Peter Selinger 2001-2013
</metadata>
<g transform="translate(0.000000,693.000000) scale(0.100000,-0.100000)"
fill="#000000" stroke="none">
<path d="M3904 6289 c-168 -56 -361 -160 -664 -358 -69 -44 -151 -95 -182
-111 l-58 -30 0 24 c0 31 16 46 69 70 31 15 41 25 41 43 0 48 -176 104 -335
106 -100 2 -132 -3 -187 -26 -44 -18 -44 -20 -19 -55 24 -34 41 -95 34 -124
-10 -45 -45 -104 -100 -168 -60 -70 -114 -176 -131 -255 -18 -82 -7 -237 23
-345 15 -52 30 -105 32 -117 3 -13 10 -23 15 -23 5 0 7 -4 4 -9 -3 -4 4 -39
15 -77 10 -38 22 -85 25 -104 3 -19 7 -41 10 -49 2 -8 7 -57 10 -110 11 -212
15 -246 40 -328 13 -44 20 -53 39 -53 57 0 85 -30 123 -130 9 -25 8 -25 -61
-37 -148 -25 -259 -109 -449 -344 -112 -139 -144 -163 -211 -162 -32 1 -78 12
-117 29 -99 41 -188 62 -250 58 -53 -3 -57 -5 -113 -66 -121 -129 -164 -286
-127 -460 11 -51 11 -61 -3 -76 -9 -9 -17 -40 -19 -67 l-3 -50 -190 0 -190 0
-3 53 -3 52 -89 60 c-49 33 -95 60 -102 60 -10 0 -90 -50 -187 -117 -2 -1 -4
-26 -5 -55 l-1 -53 -87 0 c-48 0 -90 -4 -95 -8 -4 -4 -7 -53 -8 -107 l0 -100
50 -1 c28 0 70 -1 95 -2 l45 -2 0 -413 1 -412 -92 0 -92 0 -1 -104 c-2 -120
-9 -113 110 -111 l75 1 0 -74 c-1 -40 1 -77 4 -81 3 -4 89 -7 192 -8 l187 0 3
81 3 81 175 1 c96 1 183 0 193 -3 15 -4 18 -15 17 -66 -1 -34 -1 -69 -1 -78 1
-14 25 -15 193 -15 l193 1 1 55 c1 30 2 66 3 81 l1 25 190 0 190 0 0 -81 0
-81 193 0 192 0 5 80 5 81 183 0 c120 1 182 -3 183 -10 1 -5 2 -37 3 -70 2
-33 4 -65 4 -71 1 -7 65 -10 195 -10 l192 1 2 75 c0 41 1 77 2 80 1 3 87 5
191 6 l190 0 0 -82 0 -81 193 1 192 1 5 80 5 81 188 0 c122 0 187 -4 188 -11
1 -5 2 -37 4 -70 1 -33 3 -65 4 -71 1 -7 64 -10 189 -10 l187 0 5 80 5 81 175
1 c96 0 180 -1 187 -3 6 -3 11 -27 11 -61 -1 -110 -24 -98 192 -98 l190 0 1
25 c1 14 2 50 2 79 0 28 3 53 6 53 14 4 367 5 376 2 6 -2 10 -37 9 -82 l-1
-78 191 1 191 1 5 80 5 80 92 0 92 0 0 107 0 108 -94 0 -95 0 0 415 0 414 85
0 c47 0 89 2 93 5 5 3 8 149 3 201 -1 6 -37 10 -88 10 l-88 0 -5 55 -5 55 -94
61 -93 62 -37 -24 c-20 -14 -44 -30 -55 -37 -10 -6 -29 -20 -41 -29 -13 -10
-26 -18 -30 -18 -19 0 -31 -30 -31 -75 l1 -50 -195 0 -195 0 0 47 c-1 29 -7
54 -15 62 -34 33 -185 126 -188 117 -2 -6 -8 -11 -13 -11 -7 0 -121 -72 -168
-106 -2 -2 -5 -25 -6 -51 -2 -26 -3 -51 -4 -54 0 -3 -83 -5 -183 -5 l-183 1
-3 53 c-3 49 -5 54 -45 80 -23 15 -43 30 -45 35 -2 4 -8 7 -13 7 -5 0 -28 13
-50 30 l-41 29 -91 -61 c-51 -34 -94 -63 -97 -65 -3 -3 -6 -23 -7 -46 -1 -23
-2 -47 -2 -53 -1 -7 -65 -10 -191 -10 l-190 0 0 52 0 51 -96 66 -96 66 -87
-57 c-112 -74 -109 -71 -113 -128 l-3 -49 -143 -1 c-141 -1 -144 0 -139 20 6
24 38 180 43 212 2 14 23 29 66 49 505 232 680 357 821 588 35 57 45 66 126
107 48 25 148 77 222 117 142 76 244 120 347 148 l64 18 27 -29 c15 -16 46
-69 67 -118 42 -95 79 -142 119 -152 34 -8 34 -51 0 -90 -29 -34 -27 -68 8
-121 33 -48 89 -75 170 -81 l70 -5 -5 64 c-3 46 -15 86 -41 142 -20 43 -37 84
-37 91 0 6 12 13 27 14 15 1 37 11 48 22 17 18 20 39 26 168 4 81 11 163 16
182 11 41 9 73 -7 78 -11 4 -99 73 -160 126 -20 17 -60 51 -89 76 -30 25 -67
56 -83 70 -49 43 -152 32 -319 -36 -108 -43 -206 -74 -239 -74 -9 0 -31 26
-51 60 -18 33 -37 60 -41 60 -5 0 -8 4 -8 9 0 5 -39 74 -86 153 -106 175 -165
293 -201 404 -15 47 -29 81 -31 75 -5 -14 -32 -15 -32 -1 0 12 40 50 54 51 6
0 20 2 30 4 31 6 56 -13 76 -60 10 -23 22 -45 27 -48 11 -7 163 44 196 66 26
17 27 21 27 106 l0 89 -47 38 c-136 111 -222 242 -269 407 -13 49 -21 61 -47
72 -80 35 -139 101 -153 170 -5 22 -9 43 -10 48 -1 4 -2 26 -3 50 l-2 42 -17
-25 c-41 -59 -154 -150 -186 -150 -9 0 -16 -4 -16 -9 0 -5 -10 -11 -22 -14
-13 -3 -52 -14 -88 -25 -103 -30 -120 -33 -120 -22 0 22 42 50 97 65 90 25
143 46 143 57 0 5 -7 16 -15 24 -8 9 -15 21 -15 28 0 13 65 77 72 71 2 -2 21
6 42 19 59 36 29 38 -70 5z m-520 -666 c-12 -51 -16 -81 -29 -213 -2 -19 -6
-87 -10 -150 -13 -253 -31 -419 -50 -481 -15 -46 -95 -1 -178 101 -34 41 -66
78 -72 82 -16 10 -12 353 5 407 17 54 79 118 179 186 41 28 92 67 115 87 23
21 44 38 47 38 4 0 0 -26 -7 -57z m823 -215 c30 -28 36 -58 12 -58 -10 0 -19
-4 -19 -9 0 -4 -12 -8 -27 -7 -21 1 -31 11 -50 45 -12 24 -20 47 -18 52 9 13
79 -2 102 -23z m989 -1007 c55 -25 124 -97 162 -169 35 -66 40 -92 16 -92 -8
0 -20 -13 -25 -30 -6 -16 -15 -30 -19 -30 -11 0 -41 39 -112 145 -65 97 -106
128 -165 123 -24 -2 -43 -3 -43 -2 0 10 45 47 71 58 45 20 66 19 115 -3z
m-3130 -1107 c9 -81 25 -155 48 -220 17 -46 21 -76 18 -125 l-4 -65 -54 0
c-60 1 -61 3 -120 126 -33 69 -37 157 -10 215 17 35 105 129 113 121 2 -2 6
-25 9 -52z m-709 -1041 l2 -413 -195 0 -194 0 0 408 c0 225 3 412 7 415 3 4
90 6 192 4 l186 -2 2 -412z m2313 92 l0 -324 -102 61 c-139 83 -203 133 -247
190 l-36 48 2 157 c0 87 2 166 2 176 1 16 17 17 191 17 l190 0 0 -325z m772
313 c3 -11 2 -744 -1 -800 -1 -17 -17 -18 -191 -18 l-190 0 0 415 0 415 189 0
c142 0 190 -3 193 -12z m763 -403 l0 -410 -187 -3 -188 -2 0 415 0 415 188 -3
187 -2 0 -410z m776 398 c3 -10 4 -196 4 -413 l-1 -395 -195 -3 -196 -2 2 412
c1 227 3 414 3 416 1 1 87 2 191 2 172 0 189 -2 192 -17z m-3365 -75 l86 -43
-5 -145 c-6 -157 -10 -190 -26 -233 -20 -51 -14 -60 72 -117 45 -30 88 -60 95
-67 7 -7 22 -19 33 -27 19 -13 24 -37 20 -88 -1 -16 -17 -18 -186 -18 l-185 0
0 390 c0 215 2 390 5 390 3 0 43 -19 91 -42z m-753 -258 c40 -52 75 -97 78
-100 17 -14 29 -53 29 -92 0 -52 31 -108 60 -108 13 0 20 7 20 20 0 11 4 20 8
20 5 0 19 23 32 51 13 28 28 53 32 55 4 3 8 -69 8 -160 l0 -166 -190 0 c-104
0 -190 3 -191 8 0 4 -2 143 -2 309 l-2 302 23 -22 c13 -12 56 -65 95 -117z
m1532 -330 c40 -28 94 -72 120 -98 l48 -47 -92 -3 c-77 -2 -96 0 -119 16 -15
11 -36 22 -47 26 -20 6 -23 31 -16 150 1 24 15 18 106 -44z"/>
<path d="M557 1343 c-2 -5 -7 -21 -11 -37 -7 -26 -9 -28 -44 -20 -20 4 -77 8
-125 9 -155 3 -277 -59 -336 -170 -22 -42 -26 -63 -26 -130 0 -69 4 -86 27
-126 48 -80 117 -126 213 -144 113 -22 278 -2 317 37 27 27 20 30 -32 12 -62
-22 -175 -25 -230 -6 -117 39 -201 145 -202 256 -1 153 95 249 242 242 112 -5
190 -60 190 -135 0 -12 5 -21 10 -21 6 0 10 26 11 58 0 31 3 85 5 120 5 57 2
74 -9 55z"/>
<path d="M4525 1321 c-8 -36 -13 -37 -232 -35 -90 0 -163 -3 -163 -8 0 -4 10
-8 23 -8 12 0 32 -3 43 -6 21 -6 22 -9 22 -255 0 -177 -3 -251 -12 -256 -12
-8 -17 -9 -53 -11 -13 -1 -23 -6 -23 -10 0 -9 266 -10 275 -1 3 4 -16 9 -43
13 l-48 6 -3 125 c-3 139 -9 129 73 125 44 -2 77 -7 83 -14 2 -2 5 -16 7 -30
6 -56 21 -44 23 19 1 36 5 76 7 90 6 32 -12 33 -20 1 -7 -29 -18 -32 -107 -35
l-68 -2 3 113 c4 130 -1 126 106 108 82 -14 89 -18 96 -54 10 -57 22 -44 24
27 1 39 4 84 8 100 3 15 1 27 -4 27 -6 0 -13 -13 -17 -29z"/>
<path d="M6414 1315 c-6 -35 -7 -36 -43 -29 -65 11 -187 13 -232 3 -161 -36
-258 -145 -264 -294 -4 -118 109 -248 235 -270 138 -24 340 5 340 49 0 13 -5
13 -42 0 -25 -9 -79 -16 -129 -17 -74 -1 -93 3 -141 26 -131 64 -195 201 -153
329 33 103 107 153 225 153 64 0 83 -5 123 -28 51 -30 67 -53 71 -98 2 -33 16
-51 17 -23 2 44 8 132 13 182 6 59 -9 72 -20 17z"/>
<path d="M5015 1310 c-7 -23 -3 -22 -232 -23 -147 0 -185 -8 -104 -21 25 -4
40 -12 43 -23 4 -15 3 -445 -1 -480 0 -7 -19 -16 -41 -19 -74 -12 -41 -19 98
-20 248 -3 232 -1 232 -29 0 -42 20 -28 22 15 2 62 6 93 14 118 3 13 2 22 -4
22 -5 0 -14 -17 -19 -37 -7 -32 -14 -39 -48 -49 -22 -6 -65 -11 -95 -10 l-55
1 -3 129 -3 129 72 -6 c74 -6 90 -15 82 -48 -3 -10 0 -19 6 -19 6 0 11 8 12
18 0 17 4 43 14 95 5 32 -1 34 -23 8 -13 -15 -35 -21 -89 -26 l-73 -5 0 115 0
116 59 -2 c32 -1 74 -8 93 -16 31 -12 35 -18 32 -44 -2 -16 1 -29 6 -29 6 0
10 6 11 13 1 6 3 34 5 62 2 27 6 55 8 62 3 7 1 15 -4 18 -5 3 -11 -4 -15 -15z"/>
<path d="M6895 1311 c-8 -26 -15 -27 -212 -26 -165 1 -206 -6 -124 -19 25 -4
40 -12 43 -23 4 -16 3 -427 -1 -475 -1 -13 -13 -20 -41 -24 -74 -12 -41 -19
93 -20 253 -3 237 -1 237 -29 0 -48 17 -24 24 33 3 31 8 72 11 90 6 44 -12 41
-21 -3 -8 -47 -31 -58 -123 -59 l-76 -1 -3 129 -3 129 70 -6 c84 -7 90 -9 83
-42 -2 -15 0 -25 7 -25 6 0 11 6 12 13 1 25 9 83 14 105 6 26 -11 30 -19 4 -4
-10 -12 -19 -19 -19 -6 0 -43 -3 -80 -7 l-68 -7 3 113 3 113 29 3 c83 10 159
-24 151 -68 -2 -11 0 -20 6 -20 5 0 9 3 9 8 3 40 12 120 15 129 2 7 0 15 -5
18 -5 3 -11 -3 -15 -14z"/>
<path d="M790 1278 c0 -4 11 -8 24 -8 14 0 27 -4 30 -8 5 -8 -71 -219 -143
-402 -44 -110 -43 -109 -84 -115 -21 -4 -36 -10 -32 -13 9 -9 215 -9 215 0 0
7 -32 13 -53 9 -17 -3 -18 32 -2 100 8 39 22 87 30 105 l14 34 80 0 c45 0 84
1 89 3 4 1 26 -50 49 -113 l41 -115 -38 -10 c-21 -5 -41 -12 -44 -15 -2 -3 53
-5 124 -5 130 0 170 7 105 19 -25 5 -39 15 -51 37 -43 83 -177 465 -169 479 4
6 17 10 31 10 13 0 24 4 24 8 0 5 -54 8 -120 8 -66 0 -120 -4 -120 -8z m120
-128 c13 -41 27 -79 30 -85 13 -18 18 -54 9 -57 -5 -2 -42 -2 -83 0 l-74 4 35
96 c19 53 37 105 40 115 8 26 16 12 43 -73z"/>
<path d="M1150 1280 c0 -3 13 -10 29 -16 21 -9 36 -28 61 -80 71 -149 166
-352 198 -424 32 -72 28 -76 171 212 120 242 140 275 168 288 18 8 33 17 33
20 0 9 -187 6 -196 -2 -4 -5 2 -9 14 -9 44 -3 47 -5 45 -29 -2 -41 -163 -405
-173 -393 -3 5 -23 46 -44 93 -20 47 -43 99 -51 115 -78 178 -86 202 -69 209
9 3 27 6 40 6 13 0 24 4 24 8 0 5 -56 8 -125 8 -69 -1 -125 -3 -125 -6z"/>
<path d="M1910 1278 c0 -4 7 -9 15 -9 8 -1 21 -2 28 -3 20 -2 11 -34 -58 -217
-111 -291 -114 -297 -152 -304 -65 -12 -39 -21 62 -20 57 0 107 4 111 8 4 4
-4 7 -17 7 -38 0 -51 14 -46 46 11 65 40 170 51 181 12 13 159 23 177 12 11
-6 43 -88 74 -186 11 -37 11 -43 -1 -44 -8 -1 -18 -3 -24 -4 -5 -1 -17 -3 -25
-4 -8 0 -15 -4 -15 -8 0 -5 129 -8 288 -8 158 0 300 -2 317 -5 28 -5 29 -8 27
-47 -2 -22 1 -44 7 -47 5 -4 10 2 10 11 -1 23 18 140 31 199 18 80 -1 64 -33
-28 -8 -24 -63 -45 -136 -53 l-61 -7 0 256 c0 249 1 256 20 257 11 1 25 3 30
4 6 1 19 3 30 4 11 0 20 5 20 9 0 9 -275 10 -285 1 -3 -4 16 -9 43 -13 l49 -6
-1 -248 c-1 -136 -4 -252 -8 -258 -9 -14 -125 -16 -148 -4 -9 5 -35 57 -59
117 -24 59 -47 117 -51 128 -23 54 -80 224 -82 245 -2 14 2 25 10 26 6 1 19 2
27 3 8 0 15 4 15 9 0 4 -54 8 -120 8 -66 0 -120 -3 -120 -8z m124 -133 c15
-44 31 -93 36 -108 l9 -28 -84 2 -83 2 25 66 c14 36 32 87 41 114 9 26 19 44
23 40 3 -5 19 -44 33 -88z"/>
<path d="M2830 1279 c0 -5 8 -9 18 -10 28 -1 53 -7 60 -14 4 -4 7 -118 7 -255
l1 -248 -43 -7 c-24 -3 -43 -9 -43 -13 0 -10 256 -9 266 1 4 4 -4 7 -17 8 -30
1 -59 6 -65 12 -2 2 -6 54 -7 116 -2 105 -1 111 18 112 11 0 29 2 39 4 12 2
27 -7 40 -23 31 -40 134 -149 196 -209 49 -47 90 -68 90 -45 0 5 -8 17 -17 28
-10 10 -29 36 -43 56 -14 21 -28 38 -32 38 -5 0 -8 4 -8 9 0 5 -22 42 -48 83
-64 97 -65 101 -32 123 40 27 80 93 80 133 0 41 -46 87 -99 98 -53 10 -361 13
-361 3z m303 -40 c60 -31 77 -97 41 -158 -22 -38 -103 -79 -142 -73 l-28 4 3
116 c1 65 5 122 7 128 5 13 82 2 119 -17z"/>
<path d="M3340 1278 c0 -4 15 -10 33 -13 26 -6 43 -22 93 -93 128 -180 129
-182 130 -296 0 -56 -2 -107 -4 -113 -2 -7 -19 -15 -38 -19 -65 -12 -33 -19
91 -19 126 0 159 8 85 20 -45 8 -42 -3 -42 163 l0 83 78 115 c81 120 122 164
155 164 10 0 19 3 19 8 0 4 -45 8 -100 8 -102 1 -112 -3 -59 -21 l29 -10 -55
-95 c-95 -161 -78 -155 -143 -53 -31 48 -59 90 -63 93 -7 5 -23 52 -20 60 1 5
8 7 41 9 11 0 20 4 20 9 0 4 -56 8 -125 8 -69 0 -125 -3 -125 -8z"/>
<path d="M5143 1278 c-2 -5 -2 -9 1 -9 3 -1 11 -3 16 -4 6 -1 23 -3 40 -4 l30
-1 -6 -182 c-3 -101 -7 -201 -9 -223 -1 -22 -3 -54 -4 -71 -1 -28 -5 -33 -36
-38 -66 -13 -35 -21 75 -21 112 0 141 7 71 19 -22 3 -42 10 -45 15 -3 4 -8 89
-12 187 -3 99 -7 199 -9 224 l-3 44 42 -46 c22 -25 57 -65 76 -89 46 -57 277
-326 312 -364 l28 -30 1 30 c0 17 2 71 4 120 2 50 6 158 9 242 3 83 9 158 12
167 3 8 19 18 35 21 57 13 27 21 -81 21 -102 0 -137 -11 -62 -20 18 -2 35 -6
37 -8 12 -12 27 -386 16 -393 -4 -2 -17 5 -30 16 -13 10 -20 19 -16 19 3 0 0
6 -7 14 -27 28 -117 133 -164 192 -27 34 -62 78 -79 99 -16 21 -36 48 -44 60
-14 22 -21 23 -104 22 -49 -1 -91 -5 -94 -9z"/>
</g>
</svg>
