<?xml version="1.0" encoding="UTF-8"?>
<svg width="1818pt" height="210pt" version="1.1" viewBox="0 0 1818 210" xmlns="http://www.w3.org/2000/svg">
 <path d="m0 0h31v210h-31v-210z"/>
 <path d="m31 0h14v210h-14v-210z" fill="#979797"/>
 <path d="m1560.2 0c63.981 25.53 129.49 52 184.12 74.62-0.7 20.13-0.27 40.28-0.32 60.42-60.57 24.75-120.95 50.68-181.74 74.86-10.22-10.28-27.33-13.18-39.7-21.25 12.59-8.47 26.27-15.19 39.43-22.73-0.07-1.25-0.13-2.5-0.16-3.74-13.03-5.67-26.45-10.44-39.29-16.52 12.98-7.22 26.3-13.84 39.47-20.74-0.08-1.24-0.14-2.49-0.19-3.73-13.13-5.29-26.3-10.55-39.16-16.46 12.53-8.26 26.45-14.08 39.3-21.82-0.08-1.22-0.14-2.43-0.19-3.65-13.27-5.14-26.26-10.98-39.14-17 12.95-6.15 26.28-11.49 39.38-17.33-0.11-1.21-0.2-2.43-0.27-3.65-12.92-7.52-26.59-13.76-39.1-21.95 12.4-6.68 25.3-12.39 37.56-19.33z" fill="#c7b199"/>
 <path d="m1744.4 74.62c24.66 9.56 48.94 20.03 73.65 29.46v0.82c-24.63 10.12-49.29 20.16-73.97 30.14 0.05-20.14-0.38-40.29 0.32-60.42z"/>
 <path d="m45 0h1515.2c-12.26 6.94-25.16 12.65-37.56 19.33 12.51 8.19 26.18 14.43 39.1 21.95 0.07 1.22 0.16 2.44 0.27 3.65-13.1 5.84-26.43 11.18-39.38 17.33 12.88 6.02 25.87 11.86 39.14 17 0.05 1.22 0.11 2.43 0.19 3.65-12.85 7.74-26.77 13.56-39.3 21.82 12.86 5.91 26.03 11.17 39.16 16.46 0.05 1.24 0.11 2.49 0.19 3.73-13.17 6.9-26.49 13.52-39.47 20.74 12.84 6.08 26.26 10.85 39.29 16.52 0.03 1.24 0.09 2.49 0.16 3.74-13.16 7.54-26.84 14.26-39.43 22.73 12.37 8.07 29.48 10.24 39.7 20.52l-0.04 0.83h-1517.2v-210z"/>
</svg>
